<svg xmlns="http://www.w3.org/2000/svg" viewBox="0 0 1074 502" width="1074" height="502" role="img" aria-label="systolic pipeline fill, steady state and drain"><defs><marker id="arrow-line" viewBox="0 0 10 10" refX="9" refY="5" markerWidth="7" markerHeight="7" orient="auto-start-reverse"><path d="M 0 1 L 9 5 L 0 9 z" fill="#8b97a3"/></marker><marker id="arrow-blue" viewBox="0 0 10 10" refX="9" refY="5" markerWidth="7" markerHeight="7" orient="auto-start-reverse"><path d="M 0 1 L 9 5 L 0 9 z" fill="#2f6f9f"/></marker><marker id="arrow-orange" viewBox="0 0 10 10" refX="9" refY="5" markerWidth="7" markerHeight="7" orient="auto-start-reverse"><path d="M 0 1 L 9 5 L 0 9 z" fill="#c26b3f"/></marker><marker id="arrow-green" viewBox="0 0 10 10" refX="9" refY="5" markerWidth="7" markerHeight="7" orient="auto-start-reverse"><path d="M 0 1 L 9 5 L 0 9 z" fill="#1f7a4d"/></marker><marker id="arrow-purple" viewBox="0 0 10 10" refX="9" refY="5" markerWidth="7" markerHeight="7" orient="auto-start-reverse"><path d="M 0 1 L 9 5 L 0 9 z" fill="#6b4f9e"/></marker></defs><rect width="1074" height="502" fill="#ffffff"/><text x="24" y="34" font-family="Inter, 'DejaVu Sans', Helvetica, Arial, sans-serif" font-size="18" fill="#22282d" text-anchor="start" font-weight="600" style="">Pipeline occupancy, captured from simulation</text><text x="24" y="54" font-family="Inter, 'DejaVu Sans', Helvetica, Arial, sans-serif" font-size="11.5" fill="#5c6672" text-anchor="start" font-weight="400" style="">ROWS=4 COLS=2, 6 activation vectors streamed back to back; numbers are the sample index each PE is working on</text><text x="213.0" y="86" font-family="Inter, 'DejaVu Sans', Helvetica, Arial, sans-serif" font-size="10" fill="#5c6672" text-anchor="middle" font-weight="400" style="">0</text><text x="259.0" y="86" font-family="Inter, 'DejaVu Sans', Helvetica, Arial, sans-serif" font-size="10" fill="#5c6672" text-anchor="middle" font-weight="400" style="">1</text><text x="305.0" y="86" font-family="Inter, 'DejaVu Sans', Helvetica, Arial, sans-serif" font-size="10" fill="#5c6672" text-anchor="middle" font-weight="400" style="">2</text><text x="351.0" y="86" font-family="Inter, 'DejaVu Sans', Helvetica, Arial, sans-serif" font-size="10" fill="#5c6672" text-anchor="middle" font-weight="400" style="">3</text><text x="397.0" y="86" font-family="Inter, 'DejaVu Sans', Helvetica, Arial, sans-serif" font-size="10" fill="#5c6672" text-anchor="middle" font-weight="400" style="">4</text><text x="443.0" y="86" font-family="Inter, 'DejaVu Sans', Helvetica, Arial, sans-serif" font-size="10" fill="#5c6672" text-anchor="middle" font-weight="400" style="">5</text><text x="489.0" y="86" font-family="Inter, 'DejaVu Sans', Helvetica, Arial, sans-serif" font-size="10" fill="#5c6672" text-anchor="middle" font-weight="400" style="">6</text><text x="535.0" y="86" font-family="Inter, 'DejaVu Sans', Helvetica, Arial, sans-serif" font-size="10" fill="#5c6672" text-anchor="middle" font-weight="400" style="">7</text><text x="581.0" y="86" font-family="Inter, 'DejaVu Sans', Helvetica, Arial, sans-serif" font-size="10" fill="#5c6672" text-anchor="middle" font-weight="400" style="">8</text><text x="627.0" y="86" font-family="Inter, 'DejaVu Sans', Helvetica, Arial, sans-serif" font-size="10" fill="#5c6672" text-anchor="middle" font-weight="400" style="">9</text><text x="673.0" y="86" font-family="Inter, 'DejaVu Sans', Helvetica, Arial, sans-serif" font-size="10" fill="#5c6672" text-anchor="middle" font-weight="400" style="">10</text><text x="719.0" y="86" font-family="Inter, 'DejaVu Sans', Helvetica, Arial, sans-serif" font-size="10" fill="#5c6672" text-anchor="middle" font-weight="400" style="">11</text><text x="765.0" y="86" font-family="Inter, 'DejaVu Sans', Helvetica, Arial, sans-serif" font-size="10" fill="#5c6672" text-anchor="middle" font-weight="400" style="">12</text><text x="811.0" y="86" font-family="Inter, 'DejaVu Sans', Helvetica, Arial, sans-serif" font-size="10" fill="#5c6672" text-anchor="middle" font-weight="400" style="">13</text><text x="178" y="86" font-family="Inter, 'DejaVu Sans', Helvetica, Arial, sans-serif" font-size="10" fill="#5c6672" text-anchor="end" font-weight="400" style="">cycle</text><text x="178" y="113" font-family="ui-monospace, 'DejaVu Sans Mono', monospace" font-size="11" fill="#22282d" text-anchor="end" font-weight="400" style="">PE(0,0)</text><rect x="190" y="96" width="43" height="22" rx="3" fill="#f7f9fa" stroke="#dce2e8" stroke-width="1.0" opacity="1.0"/><rect x="236" y="96" width="43" height="22" rx="3" fill="#f7f9fa" stroke="#dce2e8" stroke-width="1.0" opacity="1.0"/><rect x="282" y="96" width="43" height="22" rx="3" fill="#e6eff6" stroke="#2f6f9f" stroke-width="1.0" opacity="1.0"/><text x="303.5" y="112" font-family="Inter, 'DejaVu Sans', Helvetica, Arial, sans-serif" font-size="10.5" fill="#2f6f9f" text-anchor="middle" font-weight="600" style="">0</text><rect x="328" y="96" width="43" height="22" rx="3" fill="#e6eff6" stroke="#2f6f9f" stroke-width="1.0" opacity="1.0"/><text x="349.5" y="112" font-family="Inter, 'DejaVu Sans', Helvetica, Arial, sans-serif" font-size="10.5" fill="#2f6f9f" text-anchor="middle" font-weight="600" style="">1</text><rect x="374" y="96" width="43" height="22" rx="3" fill="#e6eff6" stroke="#2f6f9f" stroke-width="1.0" opacity="1.0"/><text x="395.5" y="112" font-family="Inter, 'DejaVu Sans', Helvetica, Arial, sans-serif" font-size="10.5" fill="#2f6f9f" text-anchor="middle" font-weight="600" style="">2</text><rect x="420" y="96" width="43" height="22" rx="3" fill="#e6eff6" stroke="#2f6f9f" stroke-width="1.0" opacity="1.0"/><text x="441.5" y="112" font-family="Inter, 'DejaVu Sans', Helvetica, Arial, sans-serif" font-size="10.5" fill="#2f6f9f" text-anchor="middle" font-weight="600" style="">3</text><rect x="466" y="96" width="43" height="22" rx="3" fill="#e6eff6" stroke="#2f6f9f" stroke-width="1.0" opacity="1.0"/><text x="487.5" y="112" font-family="Inter, 'DejaVu Sans', Helvetica, Arial, sans-serif" font-size="10.5" fill="#2f6f9f" text-anchor="middle" font-weight="600" style="">4</text><rect x="512" y="96" width="43" height="22" rx="3" fill="#e6eff6" stroke="#2f6f9f" stroke-width="1.0" opacity="1.0"/><text x="533.5" y="112" font-family="Inter, 'DejaVu Sans', Helvetica, Arial, sans-serif" font-size="10.5" fill="#2f6f9f" text-anchor="middle" font-weight="600" style="">5</text><rect x="558" y="96" width="43" height="22" rx="3" fill="#f7f9fa" stroke="#dce2e8" stroke-width="1.0" opacity="1.0"/><rect x="604" y="96" width="43" height="22" rx="3" fill="#f7f9fa" stroke="#dce2e8" stroke-width="1.0" opacity="1.0"/><rect x="650" y="96" width="43" height="22" rx="3" fill="#f7f9fa" stroke="#dce2e8" stroke-width="1.0" opacity="1.0"/><rect x="696" y="96" width="43" height="22" rx="3" fill="#f7f9fa" stroke="#dce2e8" stroke-width="1.0" opacity="1.0"/><rect x="742" y="96" width="43" height="22" rx="3" fill="#f7f9fa" stroke="#dce2e8" stroke-width="1.0" opacity="1.0"/><rect x="788" y="96" width="43" height="22" rx="3" fill="#f7f9fa" stroke="#dce2e8" stroke-width="1.0" opacity="1.0"/><text x="178" y="139" font-family="ui-monospace, 'DejaVu Sans Mono', monospace" font-size="11" fill="#22282d" text-anchor="end" font-weight="400" style="">PE(0,1)</text><rect x="190" y="122" width="43" height="22" rx="3" fill="#f7f9fa" stroke="#dce2e8" stroke-width="1.0" opacity="1.0"/><rect x="236" y="122" width="43" height="22" rx="3" fill="#f7f9fa" stroke="#dce2e8" stroke-width="1.0" opacity="1.0"/><rect x="282" y="122" width="43" height="22" rx="3" fill="#f7f9fa" stroke="#dce2e8" stroke-width="1.0" opacity="1.0"/><rect x="328" y="122" width="43" height="22" rx="3" fill="#e6eff6" stroke="#2f6f9f" stroke-width="1.0" opacity="1.0"/><text x="349.5" y="138" font-family="Inter, 'DejaVu Sans', Helvetica, Arial, sans-serif" font-size="10.5" fill="#2f6f9f" text-anchor="middle" font-weight="600" style="">0</text><rect x="374" y="122" width="43" height="22" rx="3" fill="#e6eff6" stroke="#2f6f9f" stroke-width="1.0" opacity="1.0"/><text x="395.5" y="138" font-family="Inter, 'DejaVu Sans', Helvetica, Arial, sans-serif" font-size="10.5" fill="#2f6f9f" text-anchor="middle" font-weight="600" style="">1</text><rect x="420" y="122" width="43" height="22" rx="3" fill="#e6eff6" stroke="#2f6f9f" stroke-width="1.0" opacity="1.0"/><text x="441.5" y="138" font-family="Inter, 'DejaVu Sans', Helvetica, Arial, sans-serif" font-size="10.5" fill="#2f6f9f" text-anchor="middle" font-weight="600" style="">2</text><rect x="466" y="122" width="43" height="22" rx="3" fill="#e6eff6" stroke="#2f6f9f" stroke-width="1.0" opacity="1.0"/><text x="487.5" y="138" font-family="Inter, 'DejaVu Sans', Helvetica, Arial, sans-serif" font-size="10.5" fill="#2f6f9f" text-anchor="middle" font-weight="600" style="">3</text><rect x="512" y="122" width="43" height="22" rx="3" fill="#e6eff6" stroke="#2f6f9f" stroke-width="1.0" opacity="1.0"/><text x="533.5" y="138" font-family="Inter, 'DejaVu Sans', Helvetica, Arial, sans-serif" font-size="10.5" fill="#2f6f9f" text-anchor="middle" font-weight="600" style="">4</text><rect x="558" y="122" width="43" height="22" rx="3" fill="#e6eff6" stroke="#2f6f9f" stroke-width="1.0" opacity="1.0"/><text x="579.5" y="138" font-family="Inter, 'DejaVu Sans', Helvetica, Arial, sans-serif" font-size="10.5" fill="#2f6f9f" text-anchor="middle" font-weight="600" style="">5</text><rect x="604" y="122" width="43" height="22" rx="3" fill="#f7f9fa" stroke="#dce2e8" stroke-width="1.0" opacity="1.0"/><rect x="650" y="122" width="43" height="22" rx="3" fill="#f7f9fa" stroke="#dce2e8" stroke-width="1.0" opacity="1.0"/><rect x="696" y="122" width="43" height="22" rx="3" fill="#f7f9fa" stroke="#dce2e8" stroke-width="1.0" opacity="1.0"/><rect x="742" y="122" width="43" height="22" rx="3" fill="#f7f9fa" stroke="#dce2e8" stroke-width="1.0" opacity="1.0"/><rect x="788" y="122" width="43" height="22" rx="3" fill="#f7f9fa" stroke="#dce2e8" stroke-width="1.0" opacity="1.0"/><text x="178" y="165" font-family="ui-monospace, 'DejaVu Sans Mono', monospace" font-size="11" fill="#22282d" text-anchor="end" font-weight="400" style="">PE(1,0)</text><rect x="190" y="148" width="43" height="22" rx="3" fill="#f7f9fa" stroke="#dce2e8" stroke-width="1.0" opacity="1.0"/><rect x="236" y="148" width="43" height="22" rx="3" fill="#f7f9fa" stroke="#dce2e8" stroke-width="1.0" opacity="1.0"/><rect x="282" y="148" width="43" height="22" rx="3" fill="#f7f9fa" stroke="#dce2e8" stroke-width="1.0" opacity="1.0"/><rect x="328" y="148" width="43" height="22" rx="3" fill="#e6eff6" stroke="#2f6f9f" stroke-width="1.0" opacity="1.0"/><text x="349.5" y="164" font-family="Inter, 'DejaVu Sans', Helvetica, Arial, sans-serif" font-size="10.5" fill="#2f6f9f" text-anchor="middle" font-weight="600" style="">0</text><rect x="374" y="148" width="43" height="22" rx="3" fill="#e6eff6" stroke="#2f6f9f" stroke-width="1.0" opacity="1.0"/><text x="395.5" y="164" font-family="Inter, 'DejaVu Sans', Helvetica, Arial, sans-serif" font-size="10.5" fill="#2f6f9f" text-anchor="middle" font-weight="600" style="">1</text><rect x="420" y="148" width="43" height="22" rx="3" fill="#e6eff6" stroke="#2f6f9f" stroke-width="1.0" opacity="1.0"/><text x="441.5" y="164" font-family="Inter, 'DejaVu Sans', Helvetica, Arial, sans-serif" font-size="10.5" fill="#2f6f9f" text-anchor="middle" font-weight="600" style="">2</text><rect x="466" y="148" width="43" height="22" rx="3" fill="#e6eff6" stroke="#2f6f9f" stroke-width="1.0" opacity="1.0"/><text x="487.5" y="164" font-family="Inter, 'DejaVu Sans', Helvetica, Arial, sans-serif" font-size="10.5" fill="#2f6f9f" text-anchor="middle" font-weight="600" style="">3</text><rect x="512" y="148" width="43" height="22" rx="3" fill="#e6eff6" stroke="#2f6f9f" stroke-width="1.0" opacity="1.0"/><text x="533.5" y="164" font-family="Inter, 'DejaVu Sans', Helvetica, Arial, sans-serif" font-size="10.5" fill="#2f6f9f" text-anchor="middle" font-weight="600" style="">4</text><rect x="558" y="148" width="43" height="22" rx="3" fill="#e6eff6" stroke="#2f6f9f" stroke-width="1.0" opacity="1.0"/><text x="579.5" y="164" font-family="Inter, 'DejaVu Sans', Helvetica, Arial, sans-serif" font-size="10.5" fill="#2f6f9f" text-anchor="middle" font-weight="600" style="">5</text><rect x="604" y="148" width="43" height="22" rx="3" fill="#f7f9fa" stroke="#dce2e8" stroke-width="1.0" opacity="1.0"/><rect x="650" y="148" width="43" height="22" rx="3" fill="#f7f9fa" stroke="#dce2e8" stroke-width="1.0" opacity="1.0"/><rect x="696" y="148" width="43" height="22" rx="3" fill="#f7f9fa" stroke="#dce2e8" stroke-width="1.0" opacity="1.0"/><rect x="742" y="148" width="43" height="22" rx="3" fill="#f7f9fa" stroke="#dce2e8" stroke-width="1.0" opacity="1.0"/><rect x="788" y="148" width="43" height="22" rx="3" fill="#f7f9fa" stroke="#dce2e8" stroke-width="1.0" opacity="1.0"/><text x="178" y="191" font-family="ui-monospace, 'DejaVu Sans Mono', monospace" font-size="11" fill="#22282d" text-anchor="end" font-weight="400" style="">PE(1,1)</text><rect x="190" y="174" width="43" height="22" rx="3" fill="#f7f9fa" stroke="#dce2e8" stroke-width="1.0" opacity="1.0"/><rect x="236" y="174" width="43" height="22" rx="3" fill="#f7f9fa" stroke="#dce2e8" stroke-width="1.0" opacity="1.0"/><rect x="282" y="174" width="43" height="22" rx="3" fill="#f7f9fa" stroke="#dce2e8" stroke-width="1.0" opacity="1.0"/><rect x="328" y="174" width="43" height="22" rx="3" fill="#f7f9fa" stroke="#dce2e8" stroke-width="1.0" opacity="1.0"/><rect x="374" y="174" width="43" height="22" rx="3" fill="#e6eff6" stroke="#2f6f9f" stroke-width="1.0" opacity="1.0"/><text x="395.5" y="190" font-family="Inter, 'DejaVu Sans', Helvetica, Arial, sans-serif" font-size="10.5" fill="#2f6f9f" text-anchor="middle" font-weight="600" style="">0</text><rect x="420" y="174" width="43" height="22" rx="3" fill="#e6eff6" stroke="#2f6f9f" stroke-width="1.0" opacity="1.0"/><text x="441.5" y="190" font-family="Inter, 'DejaVu Sans', Helvetica, Arial, sans-serif" font-size="10.5" fill="#2f6f9f" text-anchor="middle" font-weight="600" style="">1</text><rect x="466" y="174" width="43" height="22" rx="3" fill="#e6eff6" stroke="#2f6f9f" stroke-width="1.0" opacity="1.0"/><text x="487.5" y="190" font-family="Inter, 'DejaVu Sans', Helvetica, Arial, sans-serif" font-size="10.5" fill="#2f6f9f" text-anchor="middle" font-weight="600" style="">2</text><rect x="512" y="174" width="43" height="22" rx="3" fill="#e6eff6" stroke="#2f6f9f" stroke-width="1.0" opacity="1.0"/><text x="533.5" y="190" font-family="Inter, 'DejaVu Sans', Helvetica, Arial, sans-serif" font-size="10.5" fill="#2f6f9f" text-anchor="middle" font-weight="600" style="">3</text><rect x="558" y="174" width="43" height="22" rx="3" fill="#e6eff6" stroke="#2f6f9f" stroke-width="1.0" opacity="1.0"/><text x="579.5" y="190" font-family="Inter, 'DejaVu Sans', Helvetica, Arial, sans-serif" font-size="10.5" fill="#2f6f9f" text-anchor="middle" font-weight="600" style="">4</text><rect x="604" y="174" width="43" height="22" rx="3" fill="#e6eff6" stroke="#2f6f9f" stroke-width="1.0" opacity="1.0"/><text x="625.5" y="190" font-family="Inter, 'DejaVu Sans', Helvetica, Arial, sans-serif" font-size="10.5" fill="#2f6f9f" text-anchor="middle" font-weight="600" style="">5</text><rect x="650" y="174" width="43" height="22" rx="3" fill="#f7f9fa" stroke="#dce2e8" stroke-width="1.0" opacity="1.0"/><rect x="696" y="174" width="43" height="22" rx="3" fill="#f7f9fa" stroke="#dce2e8" stroke-width="1.0" opacity="1.0"/><rect x="742" y="174" width="43" height="22" rx="3" fill="#f7f9fa" stroke="#dce2e8" stroke-width="1.0" opacity="1.0"/><rect x="788" y="174" width="43" height="22" rx="3" fill="#f7f9fa" stroke="#dce2e8" stroke-width="1.0" opacity="1.0"/><text x="178" y="217" font-family="ui-monospace, 'DejaVu Sans Mono', monospace" font-size="11" fill="#22282d" text-anchor="end" font-weight="400" style="">PE(2,0)</text><rect x="190" y="200" width="43" height="22" rx="3" fill="#f7f9fa" stroke="#dce2e8" stroke-width="1.0" opacity="1.0"/><rect x="236" y="200" width="43" height="22" rx="3" fill="#f7f9fa" stroke="#dce2e8" stroke-width="1.0" opacity="1.0"/><rect x="282" y="200" width="43" height="22" rx="3" fill="#f7f9fa" stroke="#dce2e8" stroke-width="1.0" opacity="1.0"/><rect x="328" y="200" width="43" height="22" rx="3" fill="#f7f9fa" stroke="#dce2e8" stroke-width="1.0" opacity="1.0"/><rect x="374" y="200" width="43" height="22" rx="3" fill="#e6eff6" stroke="#2f6f9f" stroke-width="1.0" opacity="1.0"/><text x="395.5" y="216" font-family="Inter, 'DejaVu Sans', Helvetica, Arial, sans-serif" font-size="10.5" fill="#2f6f9f" text-anchor="middle" font-weight="600" style="">0</text><rect x="420" y="200" width="43" height="22" rx="3" fill="#e6eff6" stroke="#2f6f9f" stroke-width="1.0" opacity="1.0"/><text x="441.5" y="216" font-family="Inter, 'DejaVu Sans', Helvetica, Arial, sans-serif" font-size="10.5" fill="#2f6f9f" text-anchor="middle" font-weight="600" style="">1</text><rect x="466" y="200" width="43" height="22" rx="3" fill="#e6eff6" stroke="#2f6f9f" stroke-width="1.0" opacity="1.0"/><text x="487.5" y="216" font-family="Inter, 'DejaVu Sans', Helvetica, Arial, sans-serif" font-size="10.5" fill="#2f6f9f" text-anchor="middle" font-weight="600" style="">2</text><rect x="512" y="200" width="43" height="22" rx="3" fill="#e6eff6" stroke="#2f6f9f" stroke-width="1.0" opacity="1.0"/><text x="533.5" y="216" font-family="Inter, 'DejaVu Sans', Helvetica, Arial, sans-serif" font-size="10.5" fill="#2f6f9f" text-anchor="middle" font-weight="600" style="">3</text><rect x="558" y="200" width="43" height="22" rx="3" fill="#e6eff6" stroke="#2f6f9f" stroke-width="1.0" opacity="1.0"/><text x="579.5" y="216" font-family="Inter, 'DejaVu Sans', Helvetica, Arial, sans-serif" font-size="10.5" fill="#2f6f9f" text-anchor="middle" font-weight="600" style="">4</text><rect x="604" y="200" width="43" height="22" rx="3" fill="#e6eff6" stroke="#2f6f9f" stroke-width="1.0" opacity="1.0"/><text x="625.5" y="216" font-family="Inter, 'DejaVu Sans', Helvetica, Arial, sans-serif" font-size="10.5" fill="#2f6f9f" text-anchor="middle" font-weight="600" style="">5</text><rect x="650" y="200" width="43" height="22" rx="3" fill="#f7f9fa" stroke="#dce2e8" stroke-width="1.0" opacity="1.0"/><rect x="696" y="200" width="43" height="22" rx="3" fill="#f7f9fa" stroke="#dce2e8" stroke-width="1.0" opacity="1.0"/><rect x="742" y="200" width="43" height="22" rx="3" fill="#f7f9fa" stroke="#dce2e8" stroke-width="1.0" opacity="1.0"/><rect x="788" y="200" width="43" height="22" rx="3" fill="#f7f9fa" stroke="#dce2e8" stroke-width="1.0" opacity="1.0"/><text x="178" y="243" font-family="ui-monospace, 'DejaVu Sans Mono', monospace" font-size="11" fill="#22282d" text-anchor="end" font-weight="400" style="">PE(2,1)</text><rect x="190" y="226" width="43" height="22" rx="3" fill="#f7f9fa" stroke="#dce2e8" stroke-width="1.0" opacity="1.0"/><rect x="236" y="226" width="43" height="22" rx="3" fill="#f7f9fa" stroke="#dce2e8" stroke-width="1.0" opacity="1.0"/><rect x="282" y="226" width="43" height="22" rx="3" fill="#f7f9fa" stroke="#dce2e8" stroke-width="1.0" opacity="1.0"/><rect x="328" y="226" width="43" height="22" rx="3" fill="#f7f9fa" stroke="#dce2e8" stroke-width="1.0" opacity="1.0"/><rect x="374" y="226" width="43" height="22" rx="3" fill="#f7f9fa" stroke="#dce2e8" stroke-width="1.0" opacity="1.0"/><rect x="420" y="226" width="43" height="22" rx="3" fill="#e6eff6" stroke="#2f6f9f" stroke-width="1.0" opacity="1.0"/><text x="441.5" y="242" font-family="Inter, 'DejaVu Sans', Helvetica, Arial, sans-serif" font-size="10.5" fill="#2f6f9f" text-anchor="middle" font-weight="600" style="">0</text><rect x="466" y="226" width="43" height="22" rx="3" fill="#e6eff6" stroke="#2f6f9f" stroke-width="1.0" opacity="1.0"/><text x="487.5" y="242" font-family="Inter, 'DejaVu Sans', Helvetica, Arial, sans-serif" font-size="10.5" fill="#2f6f9f" text-anchor="middle" font-weight="600" style="">1</text><rect x="512" y="226" width="43" height="22" rx="3" fill="#e6eff6" stroke="#2f6f9f" stroke-width="1.0" opacity="1.0"/><text x="533.5" y="242" font-family="Inter, 'DejaVu Sans', Helvetica, Arial, sans-serif" font-size="10.5" fill="#2f6f9f" text-anchor="middle" font-weight="600" style="">2</text><rect x="558" y="226" width="43" height="22" rx="3" fill="#e6eff6" stroke="#2f6f9f" stroke-width="1.0" opacity="1.0"/><text x="579.5" y="242" font-family="Inter, 'DejaVu Sans', Helvetica, Arial, sans-serif" font-size="10.5" fill="#2f6f9f" text-anchor="middle" font-weight="600" style="">3</text><rect x="604" y="226" width="43" height="22" rx="3" fill="#e6eff6" stroke="#2f6f9f" stroke-width="1.0" opacity="1.0"/><text x="625.5" y="242" font-family="Inter, 'DejaVu Sans', Helvetica, Arial, sans-serif" font-size="10.5" fill="#2f6f9f" text-anchor="middle" font-weight="600" style="">4</text><rect x="650" y="226" width="43" height="22" rx="3" fill="#e6eff6" stroke="#2f6f9f" stroke-width="1.0" opacity="1.0"/><text x="671.5" y="242" font-family="Inter, 'DejaVu Sans', Helvetica, Arial, sans-serif" font-size="10.5" fill="#2f6f9f" text-anchor="middle" font-weight="600" style="">5</text><rect x="696" y="226" width="43" height="22" rx="3" fill="#f7f9fa" stroke="#dce2e8" stroke-width="1.0" opacity="1.0"/><rect x="742" y="226" width="43" height="22" rx="3" fill="#f7f9fa" stroke="#dce2e8" stroke-width="1.0" opacity="1.0"/><rect x="788" y="226" width="43" height="22" rx="3" fill="#f7f9fa" stroke="#dce2e8" stroke-width="1.0" opacity="1.0"/><text x="178" y="269" font-family="ui-monospace, 'DejaVu Sans Mono', monospace" font-size="11" fill="#22282d" text-anchor="end" font-weight="400" style="">PE(3,0)</text><rect x="190" y="252" width="43" height="22" rx="3" fill="#f7f9fa" stroke="#dce2e8" stroke-width="1.0" opacity="1.0"/><rect x="236" y="252" width="43" height="22" rx="3" fill="#f7f9fa" stroke="#dce2e8" stroke-width="1.0" opacity="1.0"/><rect x="282" y="252" width="43" height="22" rx="3" fill="#f7f9fa" stroke="#dce2e8" stroke-width="1.0" opacity="1.0"/><rect x="328" y="252" width="43" height="22" rx="3" fill="#f7f9fa" stroke="#dce2e8" stroke-width="1.0" opacity="1.0"/><rect x="374" y="252" width="43" height="22" rx="3" fill="#f7f9fa" stroke="#dce2e8" stroke-width="1.0" opacity="1.0"/><rect x="420" y="252" width="43" height="22" rx="3" fill="#e6eff6" stroke="#2f6f9f" stroke-width="1.0" opacity="1.0"/><text x="441.5" y="268" font-family="Inter, 'DejaVu Sans', Helvetica, Arial, sans-serif" font-size="10.5" fill="#2f6f9f" text-anchor="middle" font-weight="600" style="">0</text><rect x="466" y="252" width="43" height="22" rx="3" fill="#e6eff6" stroke="#2f6f9f" stroke-width="1.0" opacity="1.0"/><text x="487.5" y="268" font-family="Inter, 'DejaVu Sans', Helvetica, Arial, sans-serif" font-size="10.5" fill="#2f6f9f" text-anchor="middle" font-weight="600" style="">1</text><rect x="512" y="252" width="43" height="22" rx="3" fill="#e6eff6" stroke="#2f6f9f" stroke-width="1.0" opacity="1.0"/><text x="533.5" y="268" font-family="Inter, 'DejaVu Sans', Helvetica, Arial, sans-serif" font-size="10.5" fill="#2f6f9f" text-anchor="middle" font-weight="600" style="">2</text><rect x="558" y="252" width="43" height="22" rx="3" fill="#e6eff6" stroke="#2f6f9f" stroke-width="1.0" opacity="1.0"/><text x="579.5" y="268" font-family="Inter, 'DejaVu Sans', Helvetica, Arial, sans-serif" font-size="10.5" fill="#2f6f9f" text-anchor="middle" font-weight="600" style="">3</text><rect x="604" y="252" width="43" height="22" rx="3" fill="#e6eff6" stroke="#2f6f9f" stroke-width="1.0" opacity="1.0"/><text x="625.5" y="268" font-family="Inter, 'DejaVu Sans', Helvetica, Arial, sans-serif" font-size="10.5" fill="#2f6f9f" text-anchor="middle" font-weight="600" style="">4</text><rect x="650" y="252" width="43" height="22" rx="3" fill="#e6eff6" stroke="#2f6f9f" stroke-width="1.0" opacity="1.0"/><text x="671.5" y="268" font-family="Inter, 'DejaVu Sans', Helvetica, Arial, sans-serif" font-size="10.5" fill="#2f6f9f" text-anchor="middle" font-weight="600" style="">5</text><rect x="696" y="252" width="43" height="22" rx="3" fill="#f7f9fa" stroke="#dce2e8" stroke-width="1.0" opacity="1.0"/><rect x="742" y="252" width="43" height="22" rx="3" fill="#f7f9fa" stroke="#dce2e8" stroke-width="1.0" opacity="1.0"/><rect x="788" y="252" width="43" height="22" rx="3" fill="#f7f9fa" stroke="#dce2e8" stroke-width="1.0" opacity="1.0"/><text x="178" y="295" font-family="ui-monospace, 'DejaVu Sans Mono', monospace" font-size="11" fill="#22282d" text-anchor="end" font-weight="400" style="">PE(3,1)</text><rect x="190" y="278" width="43" height="22" rx="3" fill="#f7f9fa" stroke="#dce2e8" stroke-width="1.0" opacity="1.0"/><rect x="236" y="278" width="43" height="22" rx="3" fill="#f7f9fa" stroke="#dce2e8" stroke-width="1.0" opacity="1.0"/><rect x="282" y="278" width="43" height="22" rx="3" fill="#f7f9fa" stroke="#dce2e8" stroke-width="1.0" opacity="1.0"/><rect x="328" y="278" width="43" height="22" rx="3" fill="#f7f9fa" stroke="#dce2e8" stroke-width="1.0" opacity="1.0"/><rect x="374" y="278" width="43" height="22" rx="3" fill="#f7f9fa" stroke="#dce2e8" stroke-width="1.0" opacity="1.0"/><rect x="420" y="278" width="43" height="22" rx="3" fill="#f7f9fa" stroke="#dce2e8" stroke-width="1.0" opacity="1.0"/><rect x="466" y="278" width="43" height="22" rx="3" fill="#e6eff6" stroke="#2f6f9f" stroke-width="1.0" opacity="1.0"/><text x="487.5" y="294" font-family="Inter, 'DejaVu Sans', Helvetica, Arial, sans-serif" font-size="10.5" fill="#2f6f9f" text-anchor="middle" font-weight="600" style="">0</text><rect x="512" y="278" width="43" height="22" rx="3" fill="#e6eff6" stroke="#2f6f9f" stroke-width="1.0" opacity="1.0"/><text x="533.5" y="294" font-family="Inter, 'DejaVu Sans', Helvetica, Arial, sans-serif" font-size="10.5" fill="#2f6f9f" text-anchor="middle" font-weight="600" style="">1</text><rect x="558" y="278" width="43" height="22" rx="3" fill="#e6eff6" stroke="#2f6f9f" stroke-width="1.0" opacity="1.0"/><text x="579.5" y="294" font-family="Inter, 'DejaVu Sans', Helvetica, Arial, sans-serif" font-size="10.5" fill="#2f6f9f" text-anchor="middle" font-weight="600" style="">2</text><rect x="604" y="278" width="43" height="22" rx="3" fill="#e6eff6" stroke="#2f6f9f" stroke-width="1.0" opacity="1.0"/><text x="625.5" y="294" font-family="Inter, 'DejaVu Sans', Helvetica, Arial, sans-serif" font-size="10.5" fill="#2f6f9f" text-anchor="middle" font-weight="600" style="">3</text><rect x="650" y="278" width="43" height="22" rx="3" fill="#e6eff6" stroke="#2f6f9f" stroke-width="1.0" opacity="1.0"/><text x="671.5" y="294" font-family="Inter, 'DejaVu Sans', Helvetica, Arial, sans-serif" font-size="10.5" fill="#2f6f9f" text-anchor="middle" font-weight="600" style="">4</text><rect x="696" y="278" width="43" height="22" rx="3" fill="#e6eff6" stroke="#2f6f9f" stroke-width="1.0" opacity="1.0"/><text x="717.5" y="294" font-family="Inter, 'DejaVu Sans', Helvetica, Arial, sans-serif" font-size="10.5" fill="#2f6f9f" text-anchor="middle" font-weight="600" style="">5</text><rect x="742" y="278" width="43" height="22" rx="3" fill="#f7f9fa" stroke="#dce2e8" stroke-width="1.0" opacity="1.0"/><rect x="788" y="278" width="43" height="22" rx="3" fill="#f7f9fa" stroke="#dce2e8" stroke-width="1.0" opacity="1.0"/><text x="178" y="333" font-family="ui-monospace, 'DejaVu Sans Mono', monospace" font-size="11" fill="#22282d" text-anchor="end" font-weight="400" style="">MACs</text><rect x="190" y="316" width="43" height="22" rx="3" fill="#ffffff" stroke="#dce2e8" stroke-width="1.0" opacity="1.0"/><text x="211.5" y="332" font-family="Inter, 'DejaVu Sans', Helvetica, Arial, sans-serif" font-size="10.5" fill="#5c6672" text-anchor="middle" font-weight="400" style="">0</text><rect x="236" y="316" width="43" height="22" rx="3" fill="#ffffff" stroke="#dce2e8" stroke-width="1.0" opacity="1.0"/><text x="257.5" y="332" font-family="Inter, 'DejaVu Sans', Helvetica, Arial, sans-serif" font-size="10.5" fill="#5c6672" text-anchor="middle" font-weight="400" style="">0</text><rect x="282" y="316" width="43" height="22" rx="3" fill="#ffffff" stroke="#dce2e8" stroke-width="1.0" opacity="1.0"/><text x="303.5" y="332" font-family="Inter, 'DejaVu Sans', Helvetica, Arial, sans-serif" font-size="10.5" fill="#5c6672" text-anchor="middle" font-weight="400" style="">1</text><rect x="328" y="316" width="43" height="22" rx="3" fill="#ffffff" stroke="#dce2e8" stroke-width="1.0" opacity="1.0"/><text x="349.5" y="332" font-family="Inter, 'DejaVu Sans', Helvetica, Arial, sans-serif" font-size="10.5" fill="#5c6672" text-anchor="middle" font-weight="400" style="">3</text><rect x="374" y="316" width="43" height="22" rx="3" fill="#ffffff" stroke="#dce2e8" stroke-width="1.0" opacity="1.0"/><text x="395.5" y="332" font-family="Inter, 'DejaVu Sans', Helvetica, Arial, sans-serif" font-size="10.5" fill="#5c6672" text-anchor="middle" font-weight="400" style="">5</text><rect x="420" y="316" width="43" height="22" rx="3" fill="#ffffff" stroke="#dce2e8" stroke-width="1.0" opacity="1.0"/><text x="441.5" y="332" font-family="Inter, 'DejaVu Sans', Helvetica, Arial, sans-serif" font-size="10.5" fill="#5c6672" text-anchor="middle" font-weight="400" style="">7</text><rect x="466" y="316" width="43" height="22" rx="3" fill="#e6f2eb" stroke="#1f7a4d" stroke-width="1.0" opacity="1.0"/><text x="487.5" y="332" font-family="Inter, 'DejaVu Sans', Helvetica, Arial, sans-serif" font-size="10.5" fill="#1f7a4d" text-anchor="middle" font-weight="400" style="">8</text><rect x="512" y="316" width="43" height="22" rx="3" fill="#e6f2eb" stroke="#1f7a4d" stroke-width="1.0" opacity="1.0"/><text x="533.5" y="332" font-family="Inter, 'DejaVu Sans', Helvetica, Arial, sans-serif" font-size="10.5" fill="#1f7a4d" text-anchor="middle" font-weight="400" style="">8</text><rect x="558" y="316" width="43" height="22" rx="3" fill="#ffffff" stroke="#dce2e8" stroke-width="1.0" opacity="1.0"/><text x="579.5" y="332" font-family="Inter, 'DejaVu Sans', Helvetica, Arial, sans-serif" font-size="10.5" fill="#5c6672" text-anchor="middle" font-weight="400" style="">7</text><rect x="604" y="316" width="43" height="22" rx="3" fill="#ffffff" stroke="#dce2e8" stroke-width="1.0" opacity="1.0"/><text x="625.5" y="332" font-family="Inter, 'DejaVu Sans', Helvetica, Arial, sans-serif" font-size="10.5" fill="#5c6672" text-anchor="middle" font-weight="400" style="">5</text><rect x="650" y="316" width="43" height="22" rx="3" fill="#ffffff" stroke="#dce2e8" stroke-width="1.0" opacity="1.0"/><text x="671.5" y="332" font-family="Inter, 'DejaVu Sans', Helvetica, Arial, sans-serif" font-size="10.5" fill="#5c6672" text-anchor="middle" font-weight="400" style="">3</text><rect x="696" y="316" width="43" height="22" rx="3" fill="#ffffff" stroke="#dce2e8" stroke-width="1.0" opacity="1.0"/><text x="717.5" y="332" font-family="Inter, 'DejaVu Sans', Helvetica, Arial, sans-serif" font-size="10.5" fill="#5c6672" text-anchor="middle" font-weight="400" style="">1</text><rect x="742" y="316" width="43" height="22" rx="3" fill="#ffffff" stroke="#dce2e8" stroke-width="1.0" opacity="1.0"/><text x="763.5" y="332" font-family="Inter, 'DejaVu Sans', Helvetica, Arial, sans-serif" font-size="10.5" fill="#5c6672" text-anchor="middle" font-weight="400" style="">0</text><rect x="788" y="316" width="43" height="22" rx="3" fill="#ffffff" stroke="#dce2e8" stroke-width="1.0" opacity="1.0"/><text x="809.5" y="332" font-family="Inter, 'DejaVu Sans', Helvetica, Arial, sans-serif" font-size="10.5" fill="#5c6672" text-anchor="middle" font-weight="400" style="">0</text><rect x="190" y="360" width="89" height="22" rx="4" fill="#fbeee6" stroke="#c26b3f" stroke-width="1.0" opacity="1.0"/><text x="234.5" y="376" font-family="Inter, 'DejaVu Sans', Helvetica, Arial, sans-serif" font-size="10" fill="#c26b3f" text-anchor="middle" font-weight="600" style="">fill</text><rect x="282" y="360" width="227" height="22" rx="4" fill="#e6eff6" stroke="#2f6f9f" stroke-width="1.0" opacity="1.0"/><text x="395.5" y="376" font-family="Inter, 'DejaVu Sans', Helvetica, Arial, sans-serif" font-size="10" fill="#2f6f9f" text-anchor="middle" font-weight="600" style="">ramp</text><rect x="512" y="360" width="227" height="22" rx="4" fill="#e6f2eb" stroke="#1f7a4d" stroke-width="1.0" opacity="1.0"/><text x="625.5" y="376" font-family="Inter, 'DejaVu Sans', Helvetica, Arial, sans-serif" font-size="10" fill="#1f7a4d" text-anchor="middle" font-weight="600" style="">steady state and drain</text><text x="24" y="422" font-family="Inter, 'DejaVu Sans', Helvetica, Arial, sans-serif" font-size="11.5" fill="#22282d" text-anchor="start" font-weight="400" style="">All 8 PEs hold a live activation simultaneously for 2 cycles; every PE performs exactly 6 MACs, one per cycle, with no gaps.</text><text x="24" y="442" font-family="Inter, 'DejaVu Sans', Helvetica, Arial, sans-serif" font-size="11.5" fill="#5c6672" text-anchor="start" font-weight="400" style="">Array phase is s_count + ROWS + COLS = 6 + 4 + 2 = 12 cycles, of which 5 are fill and 1 drain.</text></svg>